<svg xmlns="http://www.w3.org/2000/svg" viewBox="0 0 55.2 79.19"><defs><style>.cls-1{fill:#63b0b8;}.cls-1,.cls-2,.cls-3,.cls-4,.cls-6,.cls-7{fill-rule:evenodd;}.cls-2{fill:#54a0aa;}.cls-3{fill:#81d8df;}.cls-4{fill:#6fc8d1;}.cls-5{fill:#40494c;}.cls-6{fill:#ebebeb;}.cls-7{fill:#fefefe;}</style></defs><g id="Layer_2" data-name="Layer 2"><g id="Layer_1-2" data-name="Layer 1"><path class="cls-1" d="M27.6,0A25.73,25.73,0,1,1,1.86,25.71,25.72,25.72,0,0,1,27.6,0Z"/><path class="cls-2" d="M53.34,25.71a25.67,25.67,0,0,1-1.05,7.22A128,128,0,0,0,27.6,30.7,128,128,0,0,0,2.91,32.93a25.31,25.31,0,0,1-1-7.22Z"/><path class="cls-3" d="M28.87,0A29.87,29.87,0,0,1,32.28.4C38.8,3.72,43.54,13.81,43.54,25.71S38.8,47.71,32.28,51a24.4,24.4,0,0,1-3.41.4c2.31-2.85,4-13.27,4-25.72S31.18,2.85,28.87,0Zm-2.54,51.4a24.72,24.72,0,0,1-3.42-.4C16.4,47.71,11.66,37.64,11.66,25.71S16.4,3.72,22.91.4A30.29,30.29,0,0,1,26.33,0c-2.31,2.82-4,13.24-4,25.68s1.72,22.87,4,25.72Z"/><path class="cls-4" d="M43.54,25.71a40.91,40.91,0,0,1-.4,5.82c-3.26-.38-6.74-.62-10.32-.75.06-1.65.08-3.34.08-5.07Zm-21.24,0H11.66a40.91,40.91,0,0,0,.4,5.82c3.26-.38,6.73-.62,10.32-.75-.06-1.65-.08-3.34-.08-5.07Z"/><path class="cls-5" d="M27.92,27.65v35.6h-.67V27.65Zm12.55.08L32,63.33l-.67-.16,8.53-35.6Zm13.06.06L35.46,63.41l-.59-.29L52.94,27.49Zm-38.15-.22,8.5,35.6-.64.16-8.51-35.6ZM2.26,27.49,20.33,63.12l-.62.29-18-35.62Z"/><path class="cls-6" d="M2,23.48H53.23a2,2,0,0,1,2,2V26a2,2,0,0,1-2,2H2a2,2,0,0,1-2-2v-.51a2,2,0,0,1,2-2Z"/><path class="cls-7" d="M17.18,24.5A1.22,1.22,0,1,1,16,25.71a1.21,1.21,0,0,1,1.21-1.21Zm-10.39,0a1.22,1.22,0,1,1-1.22,1.21A1.21,1.21,0,0,1,6.79,24.5Zm20.81,0a1.22,1.22,0,1,1-1.21,1.21A1.21,1.21,0,0,1,27.6,24.5ZM38,24.5a1.22,1.22,0,1,1-1.21,1.21A1.21,1.21,0,0,1,38,24.5Zm10.39,0a1.22,1.22,0,1,1-1.21,1.21,1.21,1.21,0,0,1,1.21-1.21Z"/><path class="cls-1" d="M19.12,62.93h17a1.4,1.4,0,0,1,1.4,1.4h0a1.39,1.39,0,0,1-1.4,1.4h-17a1.39,1.39,0,0,1-1.4-1.4h0a1.4,1.4,0,0,1,1.4-1.4Z"/><path class="cls-1" d="M19.55,65.73h16.1v8.53A4.79,4.79,0,0,1,31,79.19H24.18a4.79,4.79,0,0,1-4.63-4.93Z"/><path class="cls-2" d="M19.55,65.73h16.1v3a52.57,52.57,0,0,0-16.1,0Z"/></g></g></svg>