<svg xmlns="http://www.w3.org/2000/svg" viewBox="0 0 50.15 78.42"><defs><style>.cls-1{fill:#ebebeb;}.cls-2{fill:#ffa646;}.cls-2,.cls-3,.cls-4,.cls-5,.cls-6,.cls-7,.cls-8{fill-rule:evenodd;}.cls-3{fill:#f39a3a;}.cls-4{fill:#ffbe5e;}.cls-5{fill:#f86041;}.cls-6{fill:#ec5435;}.cls-7{fill:#ff7859;}.cls-8{fill:#e04829;}</style></defs><g id="Layer_2" data-name="Layer 2"><g id="Layer_1-2" data-name="Layer 1"><path class="cls-1" d="M19.2,57.39l2.32,11.88-.62.11L18.58,57.5Zm11.72,0L28.63,69.27l.62.11L31.54,57.5Z"/><path class="cls-2" d="M25.07,57.8h-7C13.28,45.92.33,40.05,0,22.9c-.56-30.53,50.71-30.53,50.14,0-.32,17.15-13.3,23-18.07,34.9Z"/><path class="cls-3" d="M25.07,57.8h-7c-2.62-6.57-7.76-11.28-11.88-17.1a36.37,36.37,0,0,1,18.9-5.12A36.54,36.54,0,0,1,44,40.7c-4.12,5.82-9.27,10.53-11.91,17.1Z"/><path class="cls-4" d="M5,8.25c9.61-11,30.45-11,40,0a60.1,60.1,0,0,1-20,3.15A60.13,60.13,0,0,1,5,8.25Z"/><path class="cls-5" d="M25.07,57.8H19.9C16.4,45.92,6.84,40.05,6.6,22.9,6.2-7.63,44-7.63,43.52,22.9c-.24,17.15-9.78,23-13.28,34.9Zm0,0H22C20,45.92,14.36,40.05,14.22,22.9c-.27-30.53,22-30.53,21.7,0-.13,17.15-5.76,23-7.8,34.9Zm0,0h-1c-.65-11.88-2.48-17.75-2.51-34.9-.08-30.53,7.08-30.53,7,0-.05,17.15-1.85,23-2.53,34.9Z"/><path class="cls-6" d="M25.07,57.8H19.9c-2.15-7.33-6.62-12.36-9.77-19.17a36.46,36.46,0,0,1,5.65-1.92C17.64,44.52,20.63,49.8,22,57.8h6.09c1.37-8,4.36-13.28,6.22-21.09A34.75,34.75,0,0,1,40,38.63c-3.15,6.81-7.59,11.84-9.75,19.17Zm0-22.22c1,0,2.05.06,3.07.14C27.55,44.09,26.5,49.48,26,57.8h-2C23.62,49.48,22.6,44.09,22,35.72c1-.08,2-.14,3.07-.14Z"/><path class="cls-7" d="M9.54,9.63c6.89-12.82,24.15-12.82,31.07,0-1.91.45-3.93.86-6.06,1.15-3.9-14.37-15-14.37-18.95,0-2.13-.29-4.18-.7-6.06-1.15Zm18.63,1.72c-1,0-2.05.05-3.1.05s-2.1,0-3.12-.05c1.24-15.11,5-15.11,6.22,0Z"/><path class="cls-6" d="M20.15,68H30v7.89a2.54,2.54,0,0,1-2.53,2.5H22.68a2.52,2.52,0,0,1-2.53-2.5Z"/><path class="cls-8" d="M30,75.84v.08a2.54,2.54,0,0,1-2.53,2.5H22.68a2.52,2.52,0,0,1-2.53-2.5v-.08a26.31,26.31,0,0,0,4.92.48A26.59,26.59,0,0,0,30,75.84Z"/></g></g></svg>