<svg xmlns="http://www.w3.org/2000/svg" viewBox="0 0 49.84 78.83"><defs><style>.cls-1{fill:#f06a6d;}.cls-1,.cls-2,.cls-3,.cls-4,.cls-6,.cls-7{fill-rule:evenodd;}.cls-2{fill:#fa9678;}.cls-3{fill:#ecc5a7;}.cls-4{fill:#f0d9c8;}.cls-5{fill:#40494c;}.cls-6{fill:#d85255;}.cls-7{fill:#e45e61;}</style></defs><g id="Layer_2" data-name="Layer 2"><g id="Layer_1-2" data-name="Layer 1"><path class="cls-1" d="M6.58,5.88C-7.69,17.76,3.3,42.83,20,60.76h9.9c16.67-17.93,27.66-43,13.39-54.88C33.86-1.95,16-1.95,6.58,5.88Z"/><path class="cls-2" d="M22.55,60.76h4.74c7.78-18,12.9-43.08,6.22-55C31.71,2.52,29.2.61,26.59,0c-1.1,0-2.24,0-3.34,0-2.61.57-5.12,2.48-6.92,5.71-6.68,11.93-1.56,37,6.22,55Z"/><path class="cls-3" d="M.17,17.81a29.56,29.56,0,0,0-.08,5.25l.46-.43,7.27-7.4,7.25,7.4,1.29,1.29,1.29-1.29,7.27-7.4,7.27,7.4,1.29,1.29,1.3-1.29L42,15.23l7.27,7.4.46.43a29.56,29.56,0,0,0-.08-5.25l-6.36-6.43L42,10.06l-1.27,1.32-7.27,7.4-7.27-7.4-1.29-1.32-1.29,1.32-7.27,7.4-7.27-7.4L7.82,10.06,6.53,11.38Zm2.08,15a54.93,54.93,0,0,0,2.45,6l.46-.46,5.73-5.84L16.6,38.3l1.29,1.3,1.29-1.3,5.74-5.84,5.74,5.84L32,39.6l1.29-1.3L39,32.46l5.73,5.84.46.46a54.93,54.93,0,0,0,2.45-6L46,34.45l-5.74-5.84L39,27.29l-1.29,1.32L32,34.45l-5.74-5.84-1.29-1.32-1.29,1.32-5.74,5.84-5.71-5.84-1.29-1.32L9.6,28.61,3.86,34.45Zm6.92,14c.67,1,1.34,2.08,2,3.1l1.4-1.43,4.85,5,1.29,1.3,1.3-1.3,4.87-5,4.87,5,1.3,1.3,1.29-1.3,4.85-5,1.4,1.43c.7-1,1.37-2,2-3.1l-2.15-2.18-1.29-1.29L36,44.63l-4.87,5-4.88-5-1.29-1.29-1.29,1.29-4.88,5-4.87-5-1.27-1.29-1.29,1.29Z"/><path class="cls-4" d="M13.26,20.75l1.81,1.88,1.29,1.29,1.29-1.29,7.27-7.4,7.27,7.4,1.29,1.29,1.3-1.29,1.8-1.88a45.55,45.55,0,0,0-.22-4.9l-2.88,2.93-7.27-7.4-1.29-1.32-1.29,1.32-7.27,7.4-2.88-2.93a45.55,45.55,0,0,0-.22,4.9Zm.67,9.66q.45,3.07,1.05,6.22L16.6,38.3l1.29,1.3,1.29-1.3,5.74-5.84,5.74,5.84L32,39.6l1.29-1.3,1.62-1.67q.6-3.15,1-6.22l-4,4-5.74-5.84-1.29-1.32-1.29,1.32-5.74,5.84ZM18.19,49c.51,1.59,1,3.18,1.59,4.71l.27-.27,4.87-5,4.87,5,.27.27c.57-1.53,1.08-3.12,1.59-4.71l-.56.59-4.88-5-1.29-1.29-1.29,1.29-4.88,5Z"/><rect class="cls-5" x="19.97" y="60.76" width="0.86" height="7.86"/><rect class="cls-5" x="29.01" y="60.76" width="0.86" height="7.86"/><path class="cls-1" d="M19.35,70.35H30.47a.88.88,0,0,0,.86-.87h0a.85.85,0,0,0-.86-.86H19.35a.85.85,0,0,0-.84.86h0a.87.87,0,0,0,.84.87Z"/><path class="cls-6" d="M19.51,70.35H30.33v4.84a3.63,3.63,0,0,1-3.61,3.64h-3.6a3.63,3.63,0,0,1-3.61-3.64Z"/><path class="cls-7" d="M22.2,70.35h5.44v4.84c0,2-.81,3.64-1.83,3.64H24c-1,0-1.83-1.64-1.83-3.64Z"/></g></g></svg>