<svg xmlns="http://www.w3.org/2000/svg" viewBox="0 0 44.44 78.87"><defs><style>.cls-1{fill:#f86041;}.cls-1,.cls-2,.cls-3,.cls-4,.cls-5,.cls-6,.cls-7,.cls-8{fill-rule:evenodd;}.cls-2{fill:#ec5435;}.cls-3{fill:#ff7859;}.cls-4{fill:#81d8df;}.cls-5{fill:#6fc8d1;}.cls-6{fill:#a1e2ea;}.cls-7{fill:#532e23;}.cls-8{fill:#603b30;}.cls-9{fill:#fefefe;}</style></defs><g id="Layer_2" data-name="Layer 2"><g id="Layer_1-2" data-name="Layer 1"><path class="cls-1" d="M18,61.8C16.6,53.58,3.59,43.43.55,27-6.13-9,50.55-9,43.9,27,40.83,43.43,27.82,53.58,26.42,61.8Z"/><path class="cls-2" d="M18,61.8c-.87-5.07-6.2-10.91-10.83-18.53a28.62,28.62,0,0,0,30.11,0c-4.66,7.62-10,13.46-10.86,18.53Z"/><path class="cls-3" d="M22.22,2.42C30.38,2.42,37,6.35,37,11.17s-6.6,2.08-14.76,2.08S7.44,16,7.44,11.17s6.63-8.75,14.78-8.75Z"/><path class="cls-4" d="M19.29,61.8c-1-8.22-10-18.37-12.14-34.85C4.83,9,13.53,0,22.22,0,25.59,0,29,9,28.07,27c-.84,16.48-4.34,26.63-4.72,34.85h1.78c1-8.22,10-18.37,12.15-34.85C39.59,9,30.89,0,22.22,0c-3.36,0-6.75,9-5.84,27,.81,16.48,4.34,26.63,4.71,34.85Z"/><path class="cls-5" d="M19.29,61.8C18.75,57.35,15.84,52.32,13,46a29.87,29.87,0,0,0,5.9,1.32c1.05,5.71,2,10.34,2.23,14.46Zm6.27-14.46c-1,5.71-2,10.34-2.21,14.46h1.78c.54-4.45,3.45-9.48,6.33-15.78a29.4,29.4,0,0,1-5.9,1.32Z"/><path class="cls-6" d="M7.85,12.84a19.61,19.61,0,0,1,4.17-8,19.31,19.31,0,0,1,7.19-2.24c-1.19,2.21-2.16,5.87-2.64,11-4.34.46-7.62,1-8.72-.76ZM25.21,2.61c1.19,2.21,2.16,5.87,2.67,11,4.31.46,7.62,1,8.7-.76a20.08,20.08,0,0,0-4.15-8,19.47,19.47,0,0,0-7.22-2.24Z"/><path class="cls-7" d="M16.78,66.72H27.66a.66.66,0,0,1,.65.65h0a.66.66,0,0,1-.65.67H16.78a.66.66,0,0,1-.67-.67h0a.67.67,0,0,1,.67-.65Z"/><path class="cls-8" d="M17.05,68H27.37v6.28a3.19,3.19,0,0,1-3.18,3.2H20.26a3.2,3.2,0,0,1-3.21-3.2Z"/><path class="cls-7" d="M17.05,68h.78c.17,1.78,1.24,7.84,9.16,7.81a3.21,3.21,0,0,1-2.8,1.67H20.26a3.2,3.2,0,0,1-3.21-3.2Z"/><path class="cls-8" d="M19.88,77.52h4.66a.66.66,0,0,1,.67.67h0a.67.67,0,0,1-.67.68H19.88a.67.67,0,0,1-.67-.68h0a.66.66,0,0,1,.67-.67Z"/><rect class="cls-9" x="18" y="61.8" width="0.89" height="4.93"/><rect class="cls-9" x="25.54" y="61.8" width="0.89" height="4.93"/></g></g></svg>