<svg xmlns="http://www.w3.org/2000/svg" viewBox="0 0 49.81 74.05"><defs><style>.cls-1{fill:#fefefe;}.cls-1,.cls-10,.cls-11,.cls-2,.cls-3,.cls-4,.cls-5,.cls-6,.cls-7,.cls-8,.cls-9{fill-rule:evenodd;}.cls-2{fill:#fcc900;}.cls-3{fill:#f4c006;}.cls-4{fill:#ea7600;}.cls-5{fill:#eb4c2c;}.cls-6{fill:#ff6444;}.cls-7{fill:#df4020;}.cls-8{fill:#f17e00;}.cls-9{fill:#f6901f;}.cls-10{fill:#67493c;}.cls-11{fill:#5b3d30;}</style></defs><g id="Layer_2" data-name="Layer 2"><g id="Layer_1-2" data-name="Layer 1"><path class="cls-1" d="M21.1,54.74H22V65.59H21.1Zm6.67,0h.95V65.59h-.95Z"/><path class="cls-2" d="M24.89,0C11.89,0,1.36,6.73.09,17.83-1.36,30.32,14.93,49.57,21.8,60H28c6.86-10.4,23.15-29.65,21.7-42.14C48.45,6.73,37.93,0,24.89,0Z"/><path class="cls-3" d="M.09,17.83C-1.36,30.32,14.93,49.57,21.8,60H28c2.45-3.72,6.14-8.59,9.77-13.87C3.27,46.56.09,17.83.09,17.83Z"/><path class="cls-4" d="M18.16,54.74c1.37,1.91,2.61,3.66,3.64,5.23H28c1-1.57,2.26-3.32,3.63-5.23Z"/><path class="cls-5" d="M2.92,9.94A17.81,17.81,0,0,0,.09,17.83c-.7,5.92,2.62,13.35,7,20.65H42.72c4.39-7.3,7.7-14.73,7-20.65a17.68,17.68,0,0,0-2.83-7.89Z"/><path class="cls-6" d="M41,9.94H35.88c-1,1.56-.81,4.41.65,7.08,1.8,3.31,4.87,5.14,6.83,4.06s2.08-4.63.27-7.94A10.18,10.18,0,0,0,41,9.94Z"/><path class="cls-7" d="M.09,17.83c-.7,5.92,2.62,13.35,7,20.65H12A33.47,33.47,0,0,1,.09,17.83Z"/><path class="cls-8" d="M4.24,8.21A17.84,17.84,0,0,0,.52,15.35a15.26,15.26,0,0,1,4.42-.41,14.77,14.77,0,0,1,8-1.15,14.71,14.71,0,0,1,8-.57,15,15,0,0,1,8,0,14.58,14.58,0,0,1,8,.6,14.88,14.88,0,0,1,8,1.16,14,14,0,0,1,4.42.37,17.61,17.61,0,0,0-3.66-7.11l-.76,0a14.76,14.76,0,0,0-8-1.08,14.23,14.23,0,0,0-8-.56,14.69,14.69,0,0,0-8-.06,14.47,14.47,0,0,0-8,.54,14.61,14.61,0,0,0-8,1.08,5.47,5.47,0,0,0-.7,0Zm.67,26.47C6.34,37.32,8,40,9.68,42.6a17,17,0,0,0,3.26-.11,14.65,14.65,0,0,0,8,.51,14.41,14.41,0,0,0,8,0,14.15,14.15,0,0,0,8-.57,12.24,12.24,0,0,0,3.31.11c1.69-2.58,3.34-5.25,4.74-7.89h-.06a14.88,14.88,0,0,1-8,1.16,14.58,14.58,0,0,1-8,.59,14.7,14.7,0,0,1-8,0,14.81,14.81,0,0,1-8-.56,14.77,14.77,0,0,1-8-1.16Z"/><path class="cls-9" d="M35.31,13.41c.52.13,1,.3,1.57.46a14.81,14.81,0,0,1,7.51,1,11.53,11.53,0,0,0-.76-1.7C41.83,9.83,38.76,8,36.79,9.07c-1.23.7-1.75,2.37-1.48,4.34Z"/><path class="cls-4" d="M9.11,35.87a32.06,32.06,0,0,0,11,7.27,14.46,14.46,0,0,1-7.21-.65,17,17,0,0,1-3.26.11C8,40,6.34,37.32,4.91,34.68h0a14.57,14.57,0,0,0,4.17,1.19Z"/><path class="cls-10" d="M21.66,74.05h6.49a3.64,3.64,0,0,0,3.64-3.64V66.1a.52.52,0,0,0-.49-.51H18.51a.51.51,0,0,0-.48.51v4.31a3.63,3.63,0,0,0,3.63,3.64Z"/><path class="cls-11" d="M21.66,74.05h6.49A3.7,3.7,0,0,0,31.76,71c-10,.81-12.39-3.34-13-5.39h-.3a.51.51,0,0,0-.48.51v4.31a3.63,3.63,0,0,0,3.63,3.64Z"/><path class="cls-1" d="M19.29,54.74h.92V65.59h-.92Zm10.32,0h.91V65.59h-.91Z"/></g></g></svg>