<svg xmlns="http://www.w3.org/2000/svg" viewBox="0 0 50.08 78.19"><defs><style>.cls-1{fill:#f86041;}.cls-1,.cls-2,.cls-3,.cls-4,.cls-6{fill-rule:evenodd;}.cls-2{fill:#fcc900;}.cls-3{fill:#fee998;}.cls-4{fill:#532e23;}.cls-5{fill:#40494c;}.cls-6{fill:#603b30;}</style></defs><g id="Layer_2" data-name="Layer 2"><g id="Layer_1-2" data-name="Layer 1"><path class="cls-1" d="M25,0a24,24,0,1,1-24,24A24,24,0,0,1,25,0Z"/><path class="cls-1" d="M49,25.26A24.75,24.75,0,0,1,47.28,33a76.9,76.9,0,0,0-22.24-3A77.17,77.17,0,0,0,2.77,33a23.63,23.63,0,0,1-1.69-7.7Z"/><path class="cls-2" d="M25,0c9,0,16.27,10.74,16.27,24S34,48,25,48c-3.74,0-6.78-10.74-6.78-24S21.3,0,25,0Zm0,48c-9,0-16.29-10.74-16.29-24S16.05,0,25,0c3.74,0,6.76,10.74,6.76,24s-3,24-6.76,24Z"/><path class="cls-2" d="M41.28,25.26a32.38,32.38,0,0,1-.76,6,86.47,86.47,0,0,0-8.94-1.13c.11-1.56.19-3.21.22-4.9ZM18.5,30.16c-.14-1.56-.19-3.21-.22-4.9H8.78a36.14,36.14,0,0,0,.75,6,87.43,87.43,0,0,1,9-1.13Z"/><path class="cls-3" d="M15.38,45.91H34.71a1.06,1.06,0,0,1,1,1.05v.22a1.08,1.08,0,0,1-1,1H15.38a1.08,1.08,0,0,1-1.08-1V47a1.06,1.06,0,0,1,1.08-1.05Z"/><polygon class="cls-4" points="25.04 48.23 17.77 48.23 18.66 51.21 25.04 51.21 31.42 51.21 32.28 48.23 25.04 48.23"/><path class="cls-5" d="M17.15,26l5.66,38.51-.7.08L16.45,26.06Zm-12-.08L19,64.41l-.64.24L4.44,26.15Zm40.52.25L31.75,64.65l-.68-.24L45,25.9Zm-12-.09L28,64.57l-.7-.08L32.93,26Z"/><path class="cls-3" d="M1.05,24H49a1,1,0,0,1,1,1.05v.22a1.07,1.07,0,0,1-1,1h-48a1.06,1.06,0,0,1-1-1V25A1,1,0,0,1,1.05,24Z"/><path class="cls-6" d="M17.37,64.25H32.69a1,1,0,0,1,1.05,1v.21a1,1,0,0,1-1.05,1H17.37a1,1,0,0,1-1.05-1V65.3a1.06,1.06,0,0,1,1.05-1Z"/><path class="cls-4" d="M17.83,66.56H32.26c0,3.5,1.4,11.63-3.53,11.63H21.35c-5,0-3.52-8.13-3.52-11.63Z"/><path class="cls-6" d="M32.37,69.15c.18,3.87.32,9-3.64,9H21.35c-4,0-3.85-5.17-3.63-9A33.16,33.16,0,0,1,25,68.42a33.64,33.64,0,0,1,7.33.73Z"/></g></g></svg>