<svg xmlns="http://www.w3.org/2000/svg" viewBox="0 0 43.28 75.46"><defs><style>.cls-1{fill:#a42c6e;}.cls-1,.cls-2,.cls-3,.cls-4,.cls-5,.cls-6,.cls-7{fill-rule:evenodd;}.cls-2{fill:#8c1456;}.cls-3{fill:#142d41;}.cls-4{fill:#082135;}.cls-5{fill:#fcc900;}.cls-6{fill:#e9b702;}.cls-7{fill:#fefefe;}</style></defs><g id="Layer_2" data-name="Layer 2"><g id="Layer_1-2" data-name="Layer 1"><path class="cls-1" d="M2,31c3.36,9.67,9.47,20.73,13.94,30.13H27.31c4.49-9.4,10.61-20.46,14-30.13C55.61-10.33-12.33-10.33,2,31Z"/><path class="cls-2" d="M8.89,31c2.18,9.67,6.17,20.73,9.07,30.13h7.36c2.9-9.4,6.86-20.46,9-30.13C43.65-10.33-.4-10.33,8.89,31Zm8.27,0c.78,9.67,2.15,20.73,3.17,30.13h2.59c1-9.4,2.42-20.46,3.18-30.13,3.25-41.31-12.2-41.31-8.94,0Z"/><path class="cls-3" d="M16.81,66.52h9.66a.18.18,0,0,1,.16.19v.84a.87.87,0,0,1-.86.86h-.1v5.87a1.2,1.2,0,0,1-1.19,1.18H18.8a1.2,1.2,0,0,1-1.21-1.18V68.41h-.11a.89.89,0,0,1-.86-.86v-.84a.18.18,0,0,1,.19-.19Z"/><path class="cls-4" d="M17.59,68.41h8.08v.86c-3.67.13-6.33,1.1-8.08,2.83V68.41Z"/><path class="cls-5" d="M3,33.73c.46,1.21,1,2.45,1.48,3.66H38.75c.54-1.21,1-2.45,1.51-3.66ZM42.41,14a19.13,19.13,0,0,0-1.53-3.67H2.37A17.33,17.33,0,0,0,.87,14Z"/><path class="cls-5" d="M13.33,55.78c.92,1.8,1.81,3.58,2.61,5.33H27.31c.83-1.75,1.69-3.53,2.61-5.33Z"/><path class="cls-6" d="M9.56,33.73c.3,1.21.62,2.45,1,3.66h7.19c-.11-1.21-.21-2.45-.32-3.66Zm23.16,3.66c.35-1.21.67-2.45,1-3.66H25.88c-.11,1.21-.24,2.45-.35,3.66ZM35.09,14a23.65,23.65,0,0,0-1-3.67H26c.13,1.13.26,2.35.35,3.67ZM9.16,10.35a24.79,24.79,0,0,0-1,3.67h8.75c.08-1.32.19-2.54.33-3.67Z"/><path class="cls-7" d="M17.08,66.52h.7V61.11h-.7Zm8.42,0h.68V61.11H25.5Z"/></g></g></svg>