<svg xmlns="http://www.w3.org/2000/svg" viewBox="0 0 45.32 82.15"><defs><style>.cls-1{fill:#fefefe;}.cls-2{fill:#f86041;}.cls-2,.cls-3,.cls-4,.cls-5,.cls-6,.cls-7,.cls-8,.cls-9{fill-rule:evenodd;}.cls-3{fill:#ec5435;}.cls-4{fill:#4989ac;}.cls-5{fill:#3d7da0;}.cls-6{fill:#67493c;}.cls-7{fill:#ffa646;}.cls-8{fill:#e78e2e;}.cls-9{fill:#4f3124;}</style></defs><g id="Layer_2" data-name="Layer 2"><g id="Layer_1-2" data-name="Layer 1"><path class="cls-1" d="M23,34.22V61.53H22V34.22Zm-5.63,0,3.09,27.3-.94.11-3.09-27.3Zm-5.79-.05,5.9,27.3-.92.21-5.92-27.3Zm-5.82,0,8.56,27.3-.91.27L4.85,34.36Zm22.84.19-3.1,27.3-.94-.11,3.09-27.3Zm5.79,0-5.93,27.3-.91-.21,5.89-27.3Zm5.78,0-8.56,27.3-.91-.27,8.56-27.3Z"/><path class="cls-2" d="M22.67,0A22.67,22.67,0,0,1,45.32,22.67c0,3-1,12.25-5.25,12.25-1.59,0-2.91-1-2.91-2.23,0,1.24-1.29,2.23-2.88,2.23s-2.91-1-2.91-2.23c0,1.24-1.29,2.23-2.91,2.23s-2.91-1-2.91-2.23c0,1.24-1.29,2.23-2.88,2.23s-2.91-1-2.91-2.23c0,1.24-1.32,2.23-2.9,2.23S14,33.93,14,32.69c0,1.24-1.29,2.23-2.91,2.23s-2.88-1-2.88-2.23c0,1.24-1.32,2.23-2.91,2.23C1.05,34.92,0,25.69,0,22.67A22.67,22.67,0,0,1,22.67,0Z"/><path class="cls-3" d="M45,26.36c-.54,3.8-1.94,8.56-5,8.56-1.59,0-2.91-1-2.91-2.23,0,1.24-1.29,2.23-2.88,2.23s-2.91-1-2.91-2.23c0,1.24-1.29,2.23-2.91,2.23s-2.91-1-2.91-2.23c0,1.24-1.29,2.23-2.88,2.23s-2.91-1-2.91-2.23c0,1.24-1.32,2.23-2.9,2.23S14,33.93,14,32.69c0,1.24-1.29,2.23-2.91,2.23s-2.88-1-2.88-2.23c0,1.24-1.32,2.23-2.91,2.23C1.05,34.92,0,25.69,0,22.67A22.48,22.48,0,0,1,4.23,9.48C6.73,19.2,15.7,30.53,45,26.36Z"/><path class="cls-4" d="M37.19,32.88a.44.44,0,0,1,0-.19c0,1.24-1.29,2.23-2.88,2.23s-2.91-1-2.91-2.23a3.8,3.8,0,0,1-.05.46c.08-1.59.13-3.23.13-4.9C31.45,12.66,27.52,0,22.67,0,14.54,0,7.94,12.66,7.94,28.25c0,1.58.06,3.12.19,4.63a.44.44,0,0,0,0-.19c0,1.24,1.29,2.23,2.88,2.23s2.91-1,2.91-2.23a2.49,2.49,0,0,0,.05.46c-.08-1.59-.13-3.23-.13-4.9C13.87,12.66,17.8,0,22.67,0c8.11,0,14.7,12.66,14.7,28.25,0,1.58,0,3.12-.18,4.63Zm-11.66.19a2.78,2.78,0,0,1-2.86,1.85,2.79,2.79,0,0,1-2.88-1.85c0-1.57,0-3.18,0-4.82C19.76,12.66,21.06,0,22.67,0s2.88,12.66,2.88,28.25c0,1.64,0,3.25,0,4.82Z"/><path class="cls-5" d="M37.19,32.88a.44.44,0,0,1,0-.19c0,1.24-1.29,2.23-2.88,2.23s-2.91-1-2.91-2.23a3.8,3.8,0,0,1-.05.46c.08-1.59.13-3.23.13-4.9,0-.35,0-.7,0-1.05a54.55,54.55,0,0,0,5.95-.09v1.14c0,1.58,0,3.12-.18,4.63ZM8.83,18.5a54,54,0,0,0-.89,9.75c0,1.58.06,3.12.19,4.63a.44.44,0,0,0,0-.19c0,1.24,1.29,2.23,2.88,2.23s2.91-1,2.91-2.23a2.49,2.49,0,0,0,.05.46c-.08-1.59-.13-3.23-.13-4.9,0-1.86.08-3.67.16-5.44a22,22,0,0,1-5.2-4.31Zm10.93,6.86a36.07,36.07,0,0,0,5.79,1.32v1.57c0,1.64,0,3.25,0,4.82a2.78,2.78,0,0,1-2.86,1.85,2.79,2.79,0,0,1-2.88-1.85c0-1.57,0-3.18,0-4.82V25.36Z"/><path class="cls-6" d="M11.69,60.83H33.34a1.1,1.1,0,0,1,1.1,1.1v1.56a1.11,1.11,0,0,1-1.1,1.11H11.69a1.11,1.11,0,0,1-1.11-1.11V61.93a1.11,1.11,0,0,1,1.11-1.1Z"/><path class="cls-7" d="M12.09,64.6H32.93c-.27,2.82-.51,5.52-.75,8.07s-.43,4.77-.65,7a2.81,2.81,0,0,1-2.77,2.47H16.26a2.81,2.81,0,0,1-2.77-2.47c-.22-2.24-.43-4.55-.65-7s-.48-5.25-.75-8.07Z"/><path class="cls-8" d="M12.09,64.6H32.93l-.13,1.45C28.57,66.56,18,68.34,13,73.78l-.11-1.11c-.24-2.55-.48-5.25-.75-8.07Z"/><path class="cls-6" d="M12.87,64.6h2.69l-.45.48L17,67l1.89-1.89-.49-.48h2.72l-.48.48L22.51,67l1.89-1.89-.49-.48h2.72l-.48.48L28,67l1.89-1.89-.46-.48h2.69l-.46.48,1.11,1.11-.17,1.61L30.8,66l-1.88,1.89,1.88,1.88,1.83-1.83-.18,1.94-.76.75.62.65-.13,1.42v.19L30.8,71.49l-1.88,1.88,1.88,1.89L32.07,74l-.19,2-.19.19.16.16-.16,1.59L30.8,77l-1.88,1.88,1.88,1.89.62-.62A2.81,2.81,0,0,1,29.59,82l.33-.35L28,79.78l-1.88,1.89.48.48H23.91l.49-.48-1.89-1.89-1.88,1.89.48.48H18.39l.49-.48L17,79.78l-1.88,1.89.35.35a2.74,2.74,0,0,1-1.86-1.86l.62.62,1.88-1.89L14.22,77l-.89.89-.16-1.59.16-.16L13.14,76,13,74l1.27,1.27,1.88-1.89-1.88-1.88-1.38,1.37v-.19l-.13-1.42.62-.65-.76-.75-.18-1.94,1.83,1.83,1.88-1.88L14.22,66,12.39,67.8l-.17-1.61,1.11-1.11ZM25.28,66l1.89,1.89-1.89,1.88L23.4,67.86ZM28,68.72l1.89,1.88L28,72.49,26.15,70.6ZM19.74,66l1.88,1.89-1.88,1.88-1.89-1.88Zm2.77,2.75L24.4,70.6l-1.89,1.89L20.63,70.6Zm2.77,2.77,1.89,1.88-1.89,1.89L23.4,73.37ZM28,74.26l1.89,1.89L28,78l-1.88-1.88ZM17,68.72l1.89,1.88L17,72.49,15.11,70.6Zm2.75,2.77,1.88,1.88-1.88,1.89-1.89-1.89Zm2.77,2.77,1.89,1.89L22.51,78l-1.88-1.88ZM25.28,77l1.89,1.88-1.89,1.89L23.4,78.89ZM17,74.26l1.89,1.89L17,78l-1.88-1.88ZM19.74,77l1.88,1.88-1.88,1.89-1.89-1.89Z"/><path class="cls-9" d="M12.87,64.6h2.69l-.45.48L17,67l1.89-1.89-.49-.48h2.72l-.48.48L22.51,67l1.89-1.89-.49-.48h2.72l-.48.48,1.77,1.78c-.45.08-.94.19-1.45.29L25.28,66,23.4,67.86l.11.1c-1,.33-2.05.68-3.07,1.08l1.18-1.18L19.74,66l-1.89,1.89,1.62,1.58c-.41.19-.81.35-1.21.57L17,68.72,15.11,70.6l.75.76-1,.72-.59-.59-1.38,1.37v-.19l-.13-1.42.62-.65-.76-.75-.18-1.94,1.83,1.83,1.88-1.88L14.22,66,12.39,67.8l-.17-1.61,1.11-1.11Zm15.35,2.18,1.7-1.7-.46-.48h2.69l-.46.48,1,1c-.46.08-1,.14-1.53.22L30.8,66l-.43.43-2.15.38Z"/></g></g></svg>