<svg xmlns="http://www.w3.org/2000/svg" viewBox="0 0 46.76 74.65"><defs><style>.cls-1{fill:#ebebeb;}.cls-2{fill:#982062;}.cls-2,.cls-3,.cls-4,.cls-5,.cls-6,.cls-7,.cls-8{fill-rule:evenodd;}.cls-3{fill:#bc4486;}.cls-4{fill:#ffa646;}.cls-5{fill:#ffca6a;}.cls-6{fill:#343779;}.cls-7{fill:#5c5f92;}.cls-8{fill:#44477a;}</style></defs><g id="Layer_2" data-name="Layer 2"><g id="Layer_1-2" data-name="Layer 1"><path class="cls-1" d="M21,55.1l.59,10-.54,0-.56-10Zm-4.85,0,2.07,10.05-.48.1-2.1-10.07Zm10,.06-.56,10-.54,0,.59-10Zm4.85,0L29,65.22l-.48-.1,2.07-10.05Z"/><path class="cls-2" d="M.55,15.41c-3.64,19.06,11.93,25.9,15,40H31.19c3.1-14.14,18.66-21,15-40-5.62-20.55-40-20.55-45.66,0Z"/><path class="cls-3" d="M37.09,10.94c3.63,0,6.59,4.52,6.59,10.07s-3,10.1-6.59,10.1S30.52,26.58,30.52,21s2.93-10.07,6.57-10.07Z"/><path class="cls-4" d="M19.13,15.41c-.68,19.06,2.23,25.9,2.8,40h2.9c.57-14.14,3.48-21,2.81-40-1.06-20.55-7.46-20.55-8.51,0Zm-7.25,0c-1.83,19.06,6,25.9,7.57,40h7.86c1.56-14.14,9.4-21,7.57-40-2.86-20.55-20.14-20.55-23,0Zm-7.08,0c-3,19.06,9.69,25.9,12.23,40H29.74c2.53-14.14,15.18-21,12.22-40a18.91,18.91,0,0,0-37.16,0Z"/><path class="cls-5" d="M37.09,10.94a5.48,5.48,0,0,1,4.33,2.5,15.12,15.12,0,0,1,.54,2,31.74,31.74,0,0,1-.51,13.17,5.57,5.57,0,0,1-4.36,2.53,4.84,4.84,0,0,1-2.83-1,50.08,50.08,0,0,0,.62-14.73c-.19-1.21-.41-2.37-.67-3.45a4.84,4.84,0,0,1,2.88-1Z"/><path class="cls-6" d="M12.58,47.88a27.69,27.69,0,0,1,3,7.57H31.19a27.69,27.69,0,0,1,3-7.57Z"/><path class="cls-7" d="M17.32,66.6H29.44a.91.91,0,0,0,.89-.89h0a.87.87,0,0,0-.89-.86H17.32a.87.87,0,0,0-.89.86h0a.91.91,0,0,0,.89.89Z"/><path class="cls-7" d="M18.83,74.65h9.1a.87.87,0,0,0,.86-.89h0a.87.87,0,0,0-.86-.89h-9.1a.87.87,0,0,0-.86.89h0a.88.88,0,0,0,.86.89Z"/><polygon class="cls-8" points="23.38 72.87 18.83 72.87 17.32 66.6 23.38 66.6 29.44 66.6 27.93 72.87 23.38 72.87"/></g></g></svg>