<svg xmlns="http://www.w3.org/2000/svg" viewBox="0 0 48.41 81.35"><defs><style>.cls-1{fill:#60b9c2;}.cls-1,.cls-2,.cls-3,.cls-4,.cls-6,.cls-8{fill-rule:evenodd;}.cls-2{fill:#52abb5;}.cls-3{fill:#fcc900;}.cls-4{fill:#f4c006;}.cls-5{fill:#fffadd;}.cls-6{fill:#603b30;}.cls-7,.cls-8{fill:#532e23;}.cls-9{fill:#fefefe;}</style></defs><g id="Layer_2" data-name="Layer 2"><g id="Layer_1-2" data-name="Layer 1"><path class="cls-1" d="M24.21,0A23.58,23.58,0,0,1,47.77,23.56a23.26,23.26,0,0,1-3.21,11.85h0l-16.1,28.3H20L3.85,35.41h0A23.25,23.25,0,0,1,.65,23.56,23.57,23.57,0,0,1,24.21,0Z"/><path class="cls-2" d="M41.55,7.62c.51.57,1,1.13,1.45,1.75a1.51,1.51,0,0,1-1.48,1.29,2.24,2.24,0,0,0-1.24.35,2.44,2.44,0,0,0-.86,1,1.52,1.52,0,0,1-2.75,0,2.29,2.29,0,0,0-.86-1,2.14,2.14,0,0,0-1.21-.35,2.24,2.24,0,0,0-1.24.35,2.44,2.44,0,0,0-.86,1,1.52,1.52,0,0,1-2.75,0,2.29,2.29,0,0,0-.86-1,2.14,2.14,0,0,0-1.21-.35,2.17,2.17,0,0,0-1.24.35,2.36,2.36,0,0,0-.86,1,1.52,1.52,0,0,1-2.75,0A2.29,2.29,0,0,0,22,11a2.17,2.17,0,0,0-1.24-.35,2.14,2.14,0,0,0-1.21.35,2.36,2.36,0,0,0-.86,1,1.52,1.52,0,0,1-2.75,0,2.29,2.29,0,0,0-.86-1,2.24,2.24,0,0,0-1.24-.35A2.14,2.14,0,0,0,12.6,11a2.36,2.36,0,0,0-.86,1A1.52,1.52,0,0,1,9,12a2.36,2.36,0,0,0-.86-1,2.24,2.24,0,0,0-1.24-.35A1.51,1.51,0,0,1,5.41,9.37,22.18,22.18,0,0,1,6.87,7.62h0a5.23,5.23,0,0,1,2.88.83c.19.14.41.27.6.44A4.31,4.31,0,0,1,11,8.45a5.36,5.36,0,0,1,5.73,0c.19.14.41.27.6.44a4.31,4.31,0,0,1,.59-.44,5.36,5.36,0,0,1,5.73,0c.19.14.41.27.6.44.19-.17.4-.3.59-.44a5.36,5.36,0,0,1,5.73,0c.19.14.41.27.6.44.19-.17.4-.3.59-.44a5.36,5.36,0,0,1,5.73,0,4.41,4.41,0,0,1,.6.44c.19-.17.4-.3.59-.44a5.25,5.25,0,0,1,2.88-.83Zm6.22,15.67v.27a24.38,24.38,0,0,1-.16,2.72h-.19a3.4,3.4,0,0,0-1.91.57,3.55,3.55,0,0,0-1.35,1.5,1.41,1.41,0,0,1-.73.73,1.52,1.52,0,0,1-2-.73,3.53,3.53,0,0,0-1.34-1.5,3.47,3.47,0,0,0-1.94-.57,3.4,3.4,0,0,0-1.91.57,3.55,3.55,0,0,0-1.35,1.5,1.41,1.41,0,0,1-.73.73,1.52,1.52,0,0,1-2-.73,3.53,3.53,0,0,0-1.34-1.5,3.47,3.47,0,0,0-1.94-.57,3.42,3.42,0,0,0-1.91.57,3.55,3.55,0,0,0-1.35,1.5,1.41,1.41,0,0,1-.73.73,1.52,1.52,0,0,1-2-.73,3.53,3.53,0,0,0-1.34-1.5,3.54,3.54,0,0,0-3.85,0,3.55,3.55,0,0,0-1.35,1.5,1.41,1.41,0,0,1-.73.73,1.52,1.52,0,0,1-2-.73,3.53,3.53,0,0,0-1.34-1.5,3.54,3.54,0,0,0-3.85,0A3.55,3.55,0,0,0,7,28.35a1.31,1.31,0,0,1-.73.73,1.53,1.53,0,0,1-2-.73,3.53,3.53,0,0,0-1.34-1.5A3.45,3.45,0,0,0,1,26.28H.81a22.2,22.2,0,0,1-.16-2.72v-.27A1.18,1.18,0,0,1,1,23.24a6.63,6.63,0,0,1,3.55,1.05,6.8,6.8,0,0,1,1.08.86,5.81,5.81,0,0,1,1.1-.86,6.56,6.56,0,0,1,3.56-1.05,6.63,6.63,0,0,1,3.55,1.05,6.8,6.8,0,0,1,1.08.86,6.59,6.59,0,0,1,8.21-.86,6.8,6.8,0,0,1,1.08.86,6.59,6.59,0,0,1,8.21-.86,6.8,6.8,0,0,1,1.08.86,6.72,6.72,0,0,1,1.07-.86,6.64,6.64,0,0,1,3.56-1.05,6.94,6.94,0,0,1,4.66,1.91,6.72,6.72,0,0,1,1.07-.86,6.64,6.64,0,0,1,3.56-1.05,1.29,1.29,0,0,1,.35.05ZM42.3,39.39l-2.77,4.85a1.45,1.45,0,0,1-.41.3,1.52,1.52,0,0,1-2-.73,2.77,2.77,0,0,0-.91-1,2.4,2.4,0,0,0-2.59,0,2.48,2.48,0,0,0-.88,1,1.66,1.66,0,0,1-.73.73,1.53,1.53,0,0,1-2-.73,2.8,2.8,0,0,0-.92-1,2.32,2.32,0,0,0-1.29-.38,2.4,2.4,0,0,0-1.29.38,2.51,2.51,0,0,0-.89,1,1.57,1.57,0,0,1-.73.73,1.53,1.53,0,0,1-2-.73,2.69,2.69,0,0,0-.88-1,2.45,2.45,0,0,0-1.3-.38,2.35,2.35,0,0,0-1.29.38,2.66,2.66,0,0,0-.92,1,1.46,1.46,0,0,1-.72.73,1.54,1.54,0,0,1-2-.73,2.71,2.71,0,0,0-.89-1,2.42,2.42,0,0,0-1.29-.38,2.38,2.38,0,0,0-1.3.38,2.55,2.55,0,0,0-.91,1,1.55,1.55,0,0,1-.7.73,1.6,1.6,0,0,1-1.75-.3L6.11,39.39h.27a5.37,5.37,0,0,1,2.94.84,4.45,4.45,0,0,1,.64.48,3.44,3.44,0,0,1,.62-.48,5.37,5.37,0,0,1,2.94-.84,5.3,5.3,0,0,1,2.91.84,2.75,2.75,0,0,1,.64.48,4.51,4.51,0,0,1,.65-.48,5.34,5.34,0,0,1,2.93-.84,5.25,5.25,0,0,1,2.91.84,4.51,4.51,0,0,1,.65.48,4.45,4.45,0,0,1,.64-.48,5.28,5.28,0,0,1,2.91-.84,5.37,5.37,0,0,1,2.94.84,4.45,4.45,0,0,1,.64.48,2.81,2.81,0,0,1,.65-.48,5.25,5.25,0,0,1,2.91-.84,5.34,5.34,0,0,1,2.93.84,3.13,3.13,0,0,1,.62.48,4.51,4.51,0,0,1,.65-.48A5.34,5.34,0,0,1,42,39.39Z"/><path class="cls-3" d="M24.21,0c5.22,0,9.45,10.56,9.45,23.56a53.49,53.49,0,0,1-1.29,11.85h0L25.9,63.71H22.51l-6.46-28.3h0a52.9,52.9,0,0,1-1.29-11.85C14.76,10.56,19,0,24.21,0Z"/><path class="cls-4" d="M31.5,8.59c.35,1.08.68,2.23,1,3.47a1.48,1.48,0,0,1-.68.65,1.52,1.52,0,0,1-2-.73,2.29,2.29,0,0,0-.86-1,2.14,2.14,0,0,0-1.21-.35,2.17,2.17,0,0,0-1.24.35,2.36,2.36,0,0,0-.86,1,1.52,1.52,0,0,1-2.75,0A2.29,2.29,0,0,0,22,11a2.17,2.17,0,0,0-1.24-.35,2.14,2.14,0,0,0-1.21.35,2.36,2.36,0,0,0-.86,1,1.51,1.51,0,0,1-2.69.08c.27-1.24.59-2.39.94-3.47l.38.3a4.31,4.31,0,0,1,.59-.44,5.36,5.36,0,0,1,5.73,0c.19.14.41.27.6.44.19-.17.4-.3.59-.44a5.36,5.36,0,0,1,5.73,0c.19.14.41.27.6.44a4,4,0,0,1,.37-.3ZM33.63,25c0,1.43-.11,2.86-.27,4.21a1.49,1.49,0,0,1-1.24-.87,3.53,3.53,0,0,0-1.34-1.5,3.47,3.47,0,0,0-1.94-.57,3.42,3.42,0,0,0-1.91.57,3.55,3.55,0,0,0-1.35,1.5,1.41,1.41,0,0,1-.73.73,1.52,1.52,0,0,1-2-.73,3.53,3.53,0,0,0-1.34-1.5,3.54,3.54,0,0,0-3.85,0,3.55,3.55,0,0,0-1.35,1.5,1.41,1.41,0,0,1-.73.73,1.24,1.24,0,0,1-.54.14c-.13-1.35-.21-2.78-.24-4.21.06,0,.08.09.14.14a6.59,6.59,0,0,1,8.21-.86,6.8,6.8,0,0,1,1.08.86,6.59,6.59,0,0,1,8.21-.86,6.8,6.8,0,0,1,1.08.86s.08-.11.13-.14ZM31.18,40.58l-.83,3.71a1,1,0,0,1-.38-.48,2.8,2.8,0,0,0-.92-1,2.32,2.32,0,0,0-1.29-.38,2.4,2.4,0,0,0-1.29.38,2.51,2.51,0,0,0-.89,1,1.57,1.57,0,0,1-.73.73,1.53,1.53,0,0,1-2-.73,2.69,2.69,0,0,0-.88-1,2.45,2.45,0,0,0-1.3-.38,2.35,2.35,0,0,0-1.29.38,2.66,2.66,0,0,0-.92,1,1.24,1.24,0,0,1-.37.48l-.84-3.71.49-.35a5.34,5.34,0,0,1,2.93-.84,5.25,5.25,0,0,1,2.91.84,4.51,4.51,0,0,1,.65.48,4.45,4.45,0,0,1,.64-.48,5.28,5.28,0,0,1,2.91-.84,5.37,5.37,0,0,1,2.94.84l.48.35Z"/><path class="cls-5" d="M6.89,9a2.92,2.92,0,0,1,1.54.43,3.06,3.06,0,0,1,1.05,1.21,1,1,0,0,0,1.32.46,1,1,0,0,0,.46-.46,3.06,3.06,0,0,1,1.05-1.21A2.85,2.85,0,0,1,13.81,9a2.92,2.92,0,0,1,1.54.43,3.06,3.06,0,0,1,1,1.21,1,1,0,0,0,1.32.46,1,1,0,0,0,.46-.46,3.06,3.06,0,0,1,1.05-1.21A2.85,2.85,0,0,1,20.73,9a2.92,2.92,0,0,1,1.54.43,3.06,3.06,0,0,1,1.05,1.21,1,1,0,0,0,1.32.46,1,1,0,0,0,.46-.46,3.06,3.06,0,0,1,1-1.21,2.9,2.9,0,0,1,3,0,3.06,3.06,0,0,1,1,1.21,1,1,0,0,0,1.32.46,1,1,0,0,0,.46-.46,3.06,3.06,0,0,1,1-1.21,2.9,2.9,0,0,1,3,0,3.06,3.06,0,0,1,1,1.21,1,1,0,0,0,1.78,0A3.06,3.06,0,0,1,40,9.45,2.91,2.91,0,0,1,41.52,9a1,1,0,0,0,1-1,1,1,0,0,0-1-1,4.63,4.63,0,0,0-2.58.76,3.61,3.61,0,0,0-.89.73,3.8,3.8,0,0,0-.89-.73,4.73,4.73,0,0,0-5.14,0,3.61,3.61,0,0,0-.89.73,3.8,3.8,0,0,0-.89-.73,4.73,4.73,0,0,0-5.14,0,3.61,3.61,0,0,0-.89.73,3.8,3.8,0,0,0-.89-.73,4.69,4.69,0,0,0-2.59-.76,4.6,4.6,0,0,0-2.55.76,3.61,3.61,0,0,0-.89.73,3.8,3.8,0,0,0-.89-.73,4.69,4.69,0,0,0-2.59-.76,4.6,4.6,0,0,0-2.55.76,3.61,3.61,0,0,0-.89.73,3.8,3.8,0,0,0-.89-.73,4.69,4.69,0,0,0-2.59-.76,1,1,0,0,0-1,1A1,1,0,0,0,6.89,9Z"/><path class="cls-5" d="M47.42,22.7a6.15,6.15,0,0,0-3.26.94,5.59,5.59,0,0,0-1.37,1.19,6.49,6.49,0,0,0-1.38-1.19,6.1,6.1,0,0,0-7.91,1.19,6.26,6.26,0,0,0-1.38-1.19,6.1,6.1,0,0,0-7.91,1.19,6.26,6.26,0,0,0-1.38-1.19,6.16,6.16,0,0,0-6.54,0,6.21,6.21,0,0,0-1.37,1.19,6.26,6.26,0,0,0-1.38-1.19,6.16,6.16,0,0,0-6.54,0,6.21,6.21,0,0,0-1.37,1.19,5.64,5.64,0,0,0-1.38-1.19A6.14,6.14,0,0,0,1,22.7a1,1,0,1,0,0,2,4.17,4.17,0,0,1,2.2.65A3.93,3.93,0,0,1,4.74,27a1,1,0,0,0,1.32.49A.92.92,0,0,0,6.52,27a4.32,4.32,0,0,1,1.53-1.72,4.23,4.23,0,0,1,2.24-.65,4.17,4.17,0,0,1,2.2.65A3.93,3.93,0,0,1,14,27a1,1,0,0,0,1.32.49.92.92,0,0,0,.46-.49,4.32,4.32,0,0,1,1.53-1.72,4.23,4.23,0,0,1,2.24-.65,4.17,4.17,0,0,1,2.2.65A4.13,4.13,0,0,1,23.32,27a1,1,0,0,0,1.32.49A1,1,0,0,0,25.1,27a4.14,4.14,0,0,1,6-1.72A4.34,4.34,0,0,1,32.61,27a1,1,0,0,0,1.29.49,1.06,1.06,0,0,0,.49-.49,4,4,0,0,1,1.53-1.72,4.12,4.12,0,0,1,4.44,0A4.34,4.34,0,0,1,41.9,27a1,1,0,0,0,1.29.49,1,1,0,0,0,.48-.49,4.06,4.06,0,0,1,1.54-1.72,4.2,4.2,0,0,1,2.21-.65,1,1,0,1,0,0-2Z"/><path class="cls-5" d="M42,38.83a4.93,4.93,0,0,0-2.64.75,5.81,5.81,0,0,0-.94.78,4.57,4.57,0,0,0-.91-.78,4.93,4.93,0,0,0-2.64-.75,5,5,0,0,0-2.64.75,5.28,5.28,0,0,0-.92.78,5.41,5.41,0,0,0-.94-.78,4.91,4.91,0,0,0-2.64-.75,4.82,4.82,0,0,0-3.55,1.53,4.89,4.89,0,0,0-3.56-1.53,4.93,4.93,0,0,0-2.64.75,5.81,5.81,0,0,0-.94.78,5.6,5.6,0,0,0-.91-.78,5,5,0,0,0-2.64-.75,4.91,4.91,0,0,0-2.64.75,4.63,4.63,0,0,0-.92.78A5.41,5.41,0,0,0,9,39.58a4.91,4.91,0,0,0-2.64-.75,1,1,0,1,0,0,2A3,3,0,0,1,8,41.25a2.89,2.89,0,0,1,1.08,1.24,1,1,0,0,0,1.32.46,1,1,0,0,0,.48-.46,2.89,2.89,0,0,1,1.08-1.24,2.93,2.93,0,0,1,1.59-.46,3,3,0,0,1,1.59.46,3.07,3.07,0,0,1,1.07,1.24A1,1,0,0,0,17.5,43a.83.83,0,0,0,.46-.46,3,3,0,0,1,2.69-1.7,3,3,0,0,1,2.67,1.7,1,1,0,0,0,1.32.46.9.9,0,0,0,.46-.46,2.87,2.87,0,0,1,1.1-1.24,3,3,0,0,1,4.25,1.24,1,1,0,0,0,1.3.46,1,1,0,0,0,.48-.46,3,3,0,0,1,1.08-1.24,3,3,0,0,1,3.18,0,2.86,2.86,0,0,1,1.07,1.24,1,1,0,0,0,1.81,0,2.86,2.86,0,0,1,1.07-1.24A3,3,0,0,1,42,40.79a1,1,0,0,0,0-2Z"/><path class="cls-6" d="M19.66,73.05h9.1v4.34a4.1,4.1,0,0,1-4.2,4h-.7a4.09,4.09,0,0,1-4.2-4Z"/><rect class="cls-7" x="19.66" y="73.05" width="9.1" height="0.92"/><path class="cls-8" d="M19.66,73.05h2.9v4.34c0,2.18.68,4,1.51,4h-.21a4.09,4.09,0,0,1-4.2-4Z"/><rect class="cls-9" x="19.95" y="63.71" width="0.65" height="7.51"/><rect class="cls-9" x="27.82" y="63.71" width="0.65" height="7.51"/><path class="cls-6" d="M19.58,71.22h9.26a.92.92,0,0,1,.91.92h0a.9.9,0,0,1-.91.91H19.58a.9.9,0,0,1-.92-.91h0a.92.92,0,0,1,.92-.92Z"/></g></g></svg>