<svg xmlns="http://www.w3.org/2000/svg" viewBox="0 0 420.71 437.11"><defs><style>.cls-1{fill:#e5d11c;}.cls-2{fill:#f3591d;}.cls-3{fill:#1fb9e8;}</style></defs><g id="Layer_2" data-name="Layer 2"><g id="Layer_1-2" data-name="Layer 1"><path class="cls-1" d="M417.91,125.73c.67,3.61-1.25,7.4-9.09,11.42-7.8,4.28-21.52,8.71-44,16.53a641.21,641.21,0,0,0-74.18,31.43c-22.87,11.42-40.07,21.62-42.48,18.7-2.28-2.72,11-18.42,32.51-34.67,21.32-16.37,51.07-32.2,75.27-40.56s39.76-10.18,49-9.84C414.15,119.34,417.25,122.11,417.91,125.73Z"/><path class="cls-2" d="M295.34,10.92c3.14,1.92,4.75,5.73,2.72,13.85-1.87,8.23-7.43,20.71-16.93,41.17S260,113.58,251.47,136.2s-14.88,40.34-18.58,39.71c-3.55-.58-3.86-19.86.42-44.68s13.54-54.73,23.61-76.39,18.67-33.45,24.86-39.51C288.14,9.34,292.21,9,295.34,10.92Z"/><path class="cls-2" d="M89.64,29.15c2.5-2.7,6.63-3.36,14.77,1.09S124.53,44.52,141,63.93s34.76,47.45,46.17,71.71,16.84,44.08,13.59,45.58c-3.42,1.58-14.62-15.11-29.79-36s-34.67-45.76-50.33-64.14-25-29.57-29.42-37.38S87.13,31.83,89.64,29.15Z"/><path class="cls-1" d="M94.45,161.59c.42-3.66,2.14-6.79,7.36-8.52,5.17-1.57,14-1.77,27.6,2.29s30.1,13,41.3,22.74,17.45,19.46,15.12,22.2-12.42-1.36-24.9-6.11-27.64-9.9-39.31-13.37-18.62-6-22.61-9.13C95,168.73,94,165.23,94.45,161.59Z"/><path class="cls-2" d="M1.71,315.2c-2.48-2.71-2.77-6.89,2.6-14.84,5.55-7.65,16.84-19.3,39.29-33.29a261.95,261.95,0,0,1,82-32.3c27.22-5.54,48.4-4.53,48.81-1,.5,3.78-19.22,9.37-43.46,19.08a484,484,0,0,0-73.42,36.95c-20.63,12.87-32.71,21.26-41,24.93C8.43,318.62,4.19,317.91,1.71,315.2Z"/><path class="cls-2" d="M120.7,336.14c-3.17-1.87-5.41-4.6-5.15-9.65s3.21-12.36,11.18-22.28a116.1,116.1,0,0,1,32.63-27.1c11.8-6.46,22-8.69,23.9-5.61s-4.31,10.85-12,20.23S154.31,312.39,147.4,321s-11.68,13.42-15.91,15.5A10.41,10.41,0,0,1,120.7,336.14Z"/><path class="cls-2" d="M376.55,251.06c-1.61,7.38-8.38,11.24-35.68,7.43-13.71-1.8-31.6-4.6-46.34-7.15s-26.27-5.21-26.48-8.92,11.24-7.69,26.73-9.91a195.26,195.26,0,0,1,49.46-.43C373.54,236.17,378.08,244.09,376.55,251.06Z"/><path class="cls-2" d="M416.83,402.12c-3.15,1.89-7.48,1.25-14.33-5.17-7.16-6.22-16.74-18.3-33.79-37.26-8.6-9.41-18.9-19.93-29.95-30S316,309.94,305,301.69c-21.87-16.47-40.4-27.31-38.94-30.84,1.28-3.26,23,1.57,48.89,14.85a267.92,267.92,0,0,1,73.4,56c18.55,20.62,26.5,35.65,29.9,44.93C421.39,396.2,420,400.23,416.83,402.12Z"/><path class="cls-2" d="M273.17,371.42c-7.13,1.83-14.12-1.45-20-24.44s-9.62-61.55-2.49-63.38,22.4,33.78,28.29,56.77S280.29,369.6,273.17,371.42Z"/><path class="cls-1" d="M202.48,436.72c-3.49,1.14-7.29,0-11.89-7.08-4.15-7.15-9.32-20.7-10-44a161,161,0,0,1,17.49-74.81c11.22-21.61,25-34,27.79-31.92,3.12,2.24-4.57,17.88-10.3,38.89a240.88,240.88,0,0,0-6.69,34,245.12,245.12,0,0,0-1.67,33.32c.6,20,2.27,32,1.58,39.65C208.51,432.36,206,435.57,202.48,436.72Z"/><polygon class="cls-1" points="81.9 211.88 79.78 216.6 82.48 221.03 77.33 220.48 73.95 224.41 72.89 219.34 68.11 217.34 72.6 214.76 73.02 209.59 76.86 213.07 81.9 211.88"/><polygon class="cls-1" points="213.54 40.56 209.76 49 214.57 56.9 205.38 55.91 199.35 62.93 197.45 53.88 188.92 50.32 196.94 45.71 197.69 36.49 204.54 42.7 213.54 40.56"/><polygon class="cls-1" points="407.31 172.17 403.52 180.61 408.33 188.51 399.14 187.52 393.12 194.54 391.21 185.49 382.68 181.93 390.7 177.32 391.45 168.1 398.31 174.31 407.31 172.17"/><polygon class="cls-1" points="331.92 393.9 328.14 402.34 332.95 410.24 323.76 409.25 317.74 416.27 315.83 407.22 307.3 403.65 315.32 399.05 316.07 389.83 322.93 396.04 331.92 393.9"/><polygon class="cls-2" points="88.53 322.11 86.25 327.19 89.14 331.94 83.61 331.35 79.99 335.57 78.84 330.13 73.71 327.98 78.53 325.21 78.99 319.66 83.11 323.4 88.53 322.11"/><polygon class="cls-2" points="71.86 101.99 68.22 110.14 72.86 117.76 63.99 116.8 58.17 123.57 56.34 114.84 48.1 111.4 55.84 106.96 56.57 98.07 63.18 104.05 71.86 101.99"/><polygon class="cls-2" points="350.72 71.33 347.07 79.47 351.71 87.09 342.84 86.14 337.03 92.91 335.19 84.17 326.96 80.74 334.69 76.29 335.42 67.4 342.04 73.39 350.72 71.33"/><polygon class="cls-2" points="419.72 295.16 416.07 303.3 420.71 310.92 411.84 309.97 406.02 316.74 404.19 308.01 395.96 304.57 403.69 300.13 404.42 291.23 411.04 297.22 419.72 295.16"/><path class="cls-3" d="M366.35,203.41c-.26,2.44-2,4.52-6.84,5.69-4.91,1.35-13,1.73-26.33,2.63a325.55,325.55,0,0,0-44.83,6.4c-14.09,3-25,6.28-26.13,4s8.08-9.54,22.15-15.95A145.91,145.91,0,0,1,331.86,194c14.69-1,23.57.67,28.56,2.55C365.41,198.64,366.61,201,366.35,203.41Z"/><path class="cls-3" d="M289,125.39c3.63,3.3,4.56,8.18-5.13,18.82S255.63,169.35,252,166.05s9.06-23.14,18.74-33.79S285.38,122.09,289,125.39Z"/><path class="cls-3" d="M180,81.47c4-2.54,10.27-1.14,20.47,18.09a154.1,154.1,0,0,1,12.47,34.23c2.57,11.22,2.92,20.11.6,20.82s-6.92-6.71-12.32-16.34-11.79-21.46-16.53-30.57C175.11,89.62,175.73,84.15,180,81.47Z"/><path class="cls-3" d="M49.3,192.71c.79-4.83,7.09-7.83,34.39-3.35s70.68,15.64,69.88,20.48-45.47,1.53-72.76-3S48.51,197.55,49.3,192.71Z"/><path class="cls-3" d="M146,409.87c-2.45.13-4.71-.79-6.46-4.46s-2.84-10.12-1.94-20.74a109.93,109.93,0,0,1,9.15-34.37c4.68-10.22,10.11-17,12.31-16s1.09,9.21-.27,19.54-2.72,22.84-3.51,32.4C153.92,405.29,151.11,409.56,146,409.87Z"/><path class="cls-3" d="M333.92,374.55c-4,2.82-9.6,1.78-20.91-14.29s-26.31-44.28-22.3-47.1S316.21,334,327.52,350,337.93,371.73,333.92,374.55Z"/><path class="cls-3" d="M95.89,289.61c-2.42-4,.06-11,24.52-23.25a220.9,220.9,0,0,1,43.15-15.42c14.05-3.35,25.13-4.15,25.8-1.83s-9,7.42-21.55,13.64L128.2,282.31C104.87,294,98.49,294,95.89,289.61Z"/><circle class="cls-3" cx="39.49" cy="249.11" r="8.61" transform="translate(-104.01 41.69) rotate(-25.67)"/><circle class="cls-3" cx="298.96" cy="92.91" r="8.61" transform="translate(105.47 339.01) rotate(-69.09)"/><circle class="cls-3" cx="408.33" cy="217" r="8.61" transform="translate(-39.04 100.01) rotate(-13.33)"/><path class="cls-3" d="M240.08,382.52a6.75,6.75,0,1,0-6.75,6.75A6.75,6.75,0,0,0,240.08,382.52Z"/><path class="cls-1" d="M373.14,283.53a6.75,6.75,0,1,0-6.75,6.75A6.75,6.75,0,0,0,373.14,283.53Z"/><path class="cls-1" d="M122.28,123.31a6.75,6.75,0,1,0-6.75,6.74A6.75,6.75,0,0,0,122.28,123.31Z"/><path class="cls-2" d="M391.11,94a5.64,5.64,0,1,0-5.64,5.63A5.63,5.63,0,0,0,391.11,94Z"/><path class="cls-2" d="M159.22,32.65a5.64,5.64,0,1,0-5.64,5.63A5.63,5.63,0,0,0,159.22,32.65Z"/><path class="cls-1" d="M30.88,169.88a6.75,6.75,0,1,0-6.75,6.75A6.75,6.75,0,0,0,30.88,169.88Z"/><path class="cls-1" d="M108.15,389.27A6.75,6.75,0,1,0,101.4,396,6.75,6.75,0,0,0,108.15,389.27Z"/><path class="cls-1" d="M254.62,6.75a6.75,6.75,0,1,0-6.75,6.74A6.75,6.75,0,0,0,254.62,6.75Z"/></g></g></svg>